<?xml version="1.0" standalone="no"?>
<!DOCTYPE svg PUBLIC "-//W3C//DTD SVG 20010904//EN"
 "http://www.w3.org/TR/2001/REC-SVG-20010904/DTD/svg10.dtd">
<svg version="1.0" xmlns="http://www.w3.org/2000/svg"
 width="1521.000000pt" height="1504.000000pt" viewBox="0 0 1521.000000 1504.000000"
 preserveAspectRatio="xMidYMid meet">

<g transform="translate(0.000000,1504.000000) scale(0.100000,-0.100000)"
fill="#000000" stroke="none">
<path d="M0 7520 l0 -7520 7605 0 7605 0 0 7520 0 7520 -7605 0 -7605 0 0
-7520z m5800 5892 c25 -6 72 -16 105 -22 70 -14 216 -56 260 -75 17 -7 55 -24
85 -36 167 -72 346 -187 446 -287 70 -69 147 -173 201 -272 41 -73 113 -217
113 -224 0 -3 11 -29 24 -58 34 -77 61 -158 93 -283 l28 -110 5 -1095 c3 -602
2 -1297 -1 -1545 l-5 -450 -28 -100 c-15 -55 -36 -127 -48 -160 -30 -87 -119
-272 -162 -334 -20 -29 -36 -55 -36 -58 0 -2 -25 -39 -56 -81 -122 -167 -353
-366 -529 -455 -72 -37 -185 -87 -196 -87 -5 0 -17 -4 -27 -9 -16 -9 -48 -19
-157 -50 -90 -25 -213 -41 -314 -41 -96 0 -112 3 -167 29 -67 32 -112 78 -149
158 -21 42 -25 67 -25 137 0 99 19 152 77 217 61 68 134 95 274 102 111 6 195
20 231 38 10 5 23 9 29 9 13 0 65 22 134 58 225 116 429 386 490 650 22 92 22
2922 1 3024 -50 240 -173 435 -369 586 -62 48 -228 136 -277 147 -19 4 -41 11
-50 15 -52 27 -275 60 -395 60 -81 -1 -316 -30 -390 -48 -106 -27 -131 -34
-150 -42 -11 -5 -42 -17 -70 -26 -67 -24 -218 -98 -280 -137 -62 -39 -186
-128 -200 -142 -5 -6 -41 -38 -78 -70 -84 -72 -192 -206 -280 -347 -37 -59
-67 -109 -67 -112 0 -3 -11 -29 -24 -58 -49 -111 -64 -153 -96 -273 -36 -136
-41 -197 -49 -610 l-8 -400 -25 -50 c-29 -57 -97 -124 -155 -153 -23 -12 -88
-26 -167 -36 -71 -9 -150 -22 -175 -28 -73 -16 -155 -41 -165 -50 -6 -4 -16
-8 -24 -8 -7 0 -52 -19 -100 -42 -299 -144 -538 -387 -661 -673 -60 -138 -58
-133 -76 -205 -9 -36 -20 -81 -26 -100 -29 -111 -29 -437 0 -550 5 -19 17 -66
27 -105 29 -117 109 -296 182 -407 53 -81 76 -162 68 -238 -12 -104 -85 -212
-173 -254 -21 -11 -46 -23 -55 -27 -10 -5 -25 -9 -34 -9 -26 0 -183 -80 -273
-139 -91 -60 -256 -218 -332 -316 -93 -121 -194 -324 -232 -465 -9 -30 -20
-73 -26 -95 -10 -40 -27 -164 -38 -284 -6 -59 0 -123 27 -296 18 -118 22 -135
31 -141 5 -3 9 -14 9 -24 0 -19 22 -95 40 -135 51 -118 145 -292 187 -345 6
-8 39 -49 72 -91 105 -133 283 -285 426 -367 73 -41 243 -121 300 -140 181
-62 326 -83 615 -91 196 -5 219 -8 265 -29 84 -39 139 -105 169 -203 20 -62
19 -79 -10 -354 -29 -270 -24 -448 17 -630 6 -27 15 -59 19 -70 4 -11 15 -47
26 -80 10 -33 21 -67 25 -75 5 -8 33 -66 64 -129 174 -353 482 -635 861 -787
174 -69 253 -87 467 -108 113 -10 163 -10 280 0 179 16 220 24 391 74 78 23
314 136 369 177 118 87 252 211 297 277 8 11 21 28 29 36 50 51 148 240 190
366 68 204 65 153 69 1084 3 923 3 930 -55 1115 -79 252 -294 509 -493 589
-25 10 -54 22 -65 27 -52 22 -210 55 -305 64 -135 13 -226 29 -267 46 -61 26
-117 82 -148 146 -47 100 -34 249 27 317 10 11 18 24 18 28 0 15 92 67 149 84
49 15 71 15 181 5 69 -7 143 -16 165 -21 22 -5 76 -16 120 -26 96 -20 141 -34
264 -81 132 -51 344 -167 393 -216 7 -7 20 -18 29 -23 36 -20 172 -158 224
-227 30 -39 58 -77 63 -83 5 -5 21 -31 35 -56 14 -25 36 -63 49 -85 34 -55
108 -209 108 -225 0 -8 4 -18 9 -24 25 -28 104 -323 125 -469 23 -159 24
-1630 1 -1781 -28 -189 -54 -283 -120 -449 -96 -242 -243 -484 -387 -640 -20
-22 -47 -52 -60 -66 -13 -14 -52 -49 -88 -78 -36 -28 -71 -56 -78 -63 -64 -51
-361 -213 -432 -233 -14 -4 -29 -11 -35 -15 -18 -14 -217 -79 -320 -104 -226
-56 -383 -76 -605 -76 -235 0 -378 20 -650 90 -198 52 -524 220 -735 381 -126
95 -325 298 -421 429 -59 80 -164 246 -164 259 0 5 -3 11 -8 13 -12 5 -101
194 -131 278 -7 19 -17 44 -21 55 -5 11 -16 47 -25 80 -9 33 -21 71 -26 85 -5
14 -14 54 -20 90 -6 36 -15 88 -20 115 -20 110 -29 268 -23 432 l7 171 -69 5
c-108 7 -249 30 -354 57 -80 21 -156 43 -175 50 -11 4 -42 15 -70 25 -92 31
-260 109 -369 172 -86 50 -284 188 -356 249 -60 51 -194 188 -228 233 -15 20
-30 38 -33 41 -12 9 -119 170 -150 223 -38 68 -132 260 -154 317 -10 25 -21
54 -26 65 -41 99 -83 264 -119 470 -17 103 -24 352 -11 460 19 166 42 300 60
358 62 193 96 276 172 424 55 106 159 268 217 336 149 175 346 342 523 442 80
45 81 17 -12 240 -4 11 -15 47 -25 80 -9 33 -20 69 -24 80 -8 19 -23 88 -41
190 -22 120 -30 305 -20 447 14 193 28 275 71 423 5 17 14 50 21 75 6 25 16
49 20 55 5 5 9 15 9 23 0 30 141 303 204 397 87 128 138 189 250 300 101 100
111 108 211 181 195 143 391 240 642 319 65 20 127 40 138 44 19 8 20 17 20
232 1 210 12 361 34 454 5 22 17 72 26 110 10 39 21 79 25 90 4 11 13 40 20
65 7 25 31 88 52 141 132 329 346 629 622 873 75 66 201 166 208 166 3 0 41
24 84 53 80 53 362 197 387 197 7 0 17 4 23 9 15 14 155 59 314 102 93 25 199
43 340 59 98 11 532 5 590 -8z m4080 -1 c25 -5 86 -17 135 -26 50 -9 104 -20
120 -25 17 -5 57 -16 90 -25 138 -38 513 -201 523 -226 2 -5 8 -9 14 -9 6 0
37 -18 70 -40 33 -22 62 -40 65 -40 2 0 35 -22 71 -50 37 -27 81 -60 97 -72
17 -12 90 -81 163 -153 195 -190 346 -397 451 -618 68 -142 81 -173 81 -189 0
-8 4 -18 8 -23 9 -11 22 -49 47 -140 9 -33 20 -73 25 -90 9 -31 25 -114 42
-220 5 -33 11 -180 14 -328 l6 -267 26 -6 c255 -58 527 -176 742 -322 129 -88
312 -256 416 -382 101 -123 229 -344 289 -500 10 -25 21 -54 26 -65 4 -11 13
-38 19 -60 6 -22 16 -56 21 -75 14 -48 37 -160 51 -250 16 -97 16 -431 0 -540
-20 -137 -71 -355 -92 -392 -6 -10 -10 -25 -10 -33 0 -8 -4 -23 -10 -33 -5 -9
-16 -35 -26 -57 -9 -22 -21 -50 -26 -62 -16 -33 -6 -46 70 -91 194 -115 376
-277 522 -462 104 -132 240 -369 284 -495 10 -27 22 -59 26 -70 9 -20 33 -100
45 -145 3 -14 13 -50 21 -80 21 -76 33 -161 46 -327 15 -187 -3 -435 -42 -593
-29 -115 -58 -216 -70 -245 -5 -11 -12 -31 -16 -45 -23 -85 -141 -313 -229
-444 -124 -186 -246 -324 -415 -471 -99 -87 -297 -216 -435 -285 -154 -77
-173 -85 -260 -115 -27 -9 -59 -21 -70 -25 -54 -20 -122 -40 -138 -40 -9 0
-25 -4 -35 -9 -40 -21 -220 -51 -344 -58 l-78 -5 0 -246 c-1 -231 -6 -312 -29
-422 -6 -25 -14 -67 -20 -95 -11 -55 -29 -119 -41 -150 -4 -11 -16 -42 -25
-70 -9 -27 -23 -64 -31 -82 -8 -17 -14 -34 -14 -38 0 -34 -242 -454 -279 -485
-3 -3 -24 -27 -45 -55 -130 -164 -387 -386 -573 -494 -189 -111 -284 -156
-466 -220 -60 -22 -73 -25 -212 -59 -352 -84 -715 -84 -1050 0 -44 11 -96 23
-115 28 -115 26 -360 135 -488 216 -29 19 -55 34 -58 34 -3 0 -39 26 -81 58
-42 31 -88 66 -103 77 -90 67 -241 230 -332 358 -76 107 -182 304 -213 397
-11 30 -22 60 -26 65 -3 6 -14 37 -24 70 -9 33 -21 71 -26 85 -11 31 -33 140
-51 245 -19 117 -19 1816 0 1925 74 410 231 717 500 974 193 186 406 298 752
397 53 15 130 28 283 46 118 14 147 14 190 3 75 -18 116 -42 163 -91 54 -59
74 -113 74 -202 0 -131 -53 -223 -159 -276 -45 -23 -83 -32 -201 -45 -140 -17
-327 -53 -401 -79 -126 -43 -320 -209 -412 -351 -94 -145 -138 -256 -168 -426
-17 -97 -19 -169 -18 -930 0 -761 1 -832 18 -920 21 -106 57 -229 92 -311 26
-62 133 -235 181 -293 97 -117 255 -253 363 -312 159 -87 325 -150 462 -175
235 -43 553 -34 738 22 324 97 570 243 789 467 113 116 209 251 277 392 33 69
64 132 68 140 5 9 12 31 16 50 4 19 11 40 15 45 4 6 10 24 13 40 4 17 14 64
23 105 35 167 37 422 3 720 -15 135 -8 215 25 281 38 75 80 117 153 150 61 28
66 29 240 29 209 0 418 24 533 60 14 5 52 16 85 26 33 9 64 21 70 26 5 4 15 8
23 8 23 0 213 97 289 147 187 124 345 275 453 431 33 48 64 93 70 99 17 20
120 239 120 255 0 8 4 18 8 24 8 8 30 77 52 164 28 111 35 179 35 350 0 203
-8 257 -62 445 -16 54 -16 56 -63 160 -49 110 -84 175 -92 175 -4 0 -8 5 -8
11 0 18 -80 118 -190 239 -110 120 -342 270 -497 320 -121 39 -203 130 -233
257 -20 90 3 163 96 304 24 37 44 69 44 72 0 3 13 34 29 69 41 93 68 165 85
233 8 33 21 83 28 110 9 34 13 119 13 265 0 232 -4 255 -67 445 -116 350 -383
647 -723 806 -156 72 -272 104 -456 124 -147 17 -197 35 -257 96 -96 95 -101
123 -106 599 -4 405 -5 409 -49 580 -70 267 -218 523 -411 715 -78 77 -201
185 -211 185 -3 0 -36 22 -73 48 -129 94 -345 184 -572 242 -72 19 -268 40
-363 40 -164 0 -351 -39 -484 -100 -24 -11 -46 -20 -50 -20 -9 0 -107 -63
-111 -72 -2 -5 -10 -8 -18 -8 -25 0 -210 -192 -260 -270 -54 -85 -112 -214
-140 -310 -18 -62 -19 -134 -22 -1500 -2 -923 1 -1462 7 -1510 18 -133 80
-287 161 -400 122 -171 302 -306 470 -353 126 -35 148 -39 239 -44 70 -4 111
-12 151 -30 160 -70 226 -272 144 -439 -33 -68 -80 -115 -148 -149 -93 -46
-287 -31 -536 43 -30 9 -59 20 -64 24 -6 4 -16 8 -24 8 -8 0 -69 27 -136 59
-122 60 -253 142 -323 202 -86 74 -224 222 -282 302 -93 129 -207 357 -242
482 -71 256 -69 207 -69 1800 1 1487 1 1497 44 1665 69 271 251 586 456 789
62 61 201 171 216 171 4 0 15 6 23 14 42 37 313 162 406 187 124 33 157 41
210 50 33 6 89 14 125 19 83 11 491 5 550 -9z"/>
</g>
</svg>
